<?xml version="1.0" standalone="no"?>
<!DOCTYPE svg PUBLIC "-//W3C//DTD SVG 20010904//EN"
 "http://www.w3.org/TR/2001/REC-SVG-20010904/DTD/svg10.dtd">
<svg version="1.0" xmlns="http://www.w3.org/2000/svg"
 width="1759.000000pt" height="540.000000pt" viewBox="0 0 1759.000000 540.000000"
 preserveAspectRatio="xMidYMid meet">

<g transform="translate(0.000000,540.000000) scale(0.100000,-0.100000)"
fill="#000000" stroke="none">
<path d="M0 2700 l0 -2700 8795 0 8795 0 0 2700 0 2700 -8795 0 -8795 0 0
-2700z m11273 1953 c-7 -2 -19 -2 -25 0 -7 3 -2 5 12 5 14 0 19 -2 13 -5z
m-233 -32 c0 -5 -7 -12 -16 -15 -14 -5 -15 -4 -4 9 14 17 20 19 20 6z m-89
-108 c-8 -15 -10 -15 -11 -2 0 17 10 32 18 25 2 -3 -1 -13 -7 -23z m-9651 -98
c0 -50 -4 -85 -10 -85 -6 0 -10 35 -10 85 0 50 4 85 10 85 6 0 10 -35 10 -85z
m107 23 l38 -63 3 63 c4 93 22 75 22 -23 0 -62 -3 -85 -13 -85 -7 0 -31 30
-54 68 l-43 67 0 -67 c0 -39 -4 -68 -10 -68 -6 0 -10 35 -10 85 0 106 13 110
67 23z m208 52 c-3 -5 -17 -10 -31 -10 -23 0 -24 -2 -24 -75 0 -43 -4 -75 -10
-75 -6 0 -10 32 -10 75 0 73 -1 75 -25 75 -14 0 -25 5 -25 10 0 6 29 10 66 10
41 0 63 -4 59 -10z m113 -2 c17 -17 15 -67 -3 -74 -14 -6 -13 -11 5 -41 24
-40 24 -43 7 -43 -7 0 -21 16 -31 35 -11 19 -25 35 -33 35 -8 0 -13 -12 -13
-35 0 -24 -5 -35 -15 -35 -12 0 -15 16 -15 85 l0 85 43 0 c24 0 48 -5 55 -12z
m171 -14 c44 -56 12 -144 -53 -144 -18 0 -40 6 -49 13 -38 27 -38 117 0 144
30 23 79 16 102 -13z m161 6 c14 -14 20 -33 20 -65 0 -59 -27 -85 -87 -85
l-43 0 0 85 0 85 45 0 c32 0 51 -6 65 -20z m70 -36 c0 -68 13 -94 46 -94 30 0
44 31 44 101 0 27 5 49 10 49 18 0 12 -131 -7 -152 -20 -22 -76 -24 -97 -2
-18 18 -23 154 -6 154 6 0 10 -25 10 -56z m260 46 c0 -5 -15 -10 -34 -10 -25
0 -39 -7 -50 -22 -36 -51 -8 -108 51 -108 20 0 32 -4 28 -10 -9 -14 -68 -12
-88 3 -38 27 -38 117 0 144 20 15 93 17 93 3z m50 -75 c0 -69 -3 -85 -15 -85
-12 0 -15 16 -15 85 0 69 3 85 15 85 12 0 15 -16 15 -85z m106 23 l39 -63 3
63 c4 93 22 75 22 -23 0 -106 -12 -110 -66 -22 l-39 62 -3 -62 c-4 -94 -22
-76 -22 22 0 106 12 110 66 23z m229 47 c0 -5 -16 -9 -36 -7 -53 5 -76 -22
-69 -83 3 -32 20 -45 56 -45 30 0 34 3 34 25 0 18 -5 25 -20 25 -11 0 -20 5
-20 10 0 6 14 10 31 10 29 0 30 -1 27 -42 l-3 -43 -46 -3 c-41 -3 -50 1 -68
24 -29 37 -28 88 4 120 20 20 33 25 68 22 23 -2 42 -7 42 -13z m205 5 c0 -5
-11 -10 -25 -10 -24 0 -25 -2 -25 -75 0 -60 -3 -75 -15 -75 -12 0 -15 15 -15
75 0 73 -1 75 -25 75 -14 0 -25 5 -25 10 0 6 28 10 65 10 37 0 65 -4 65 -10z
m40 -25 c0 -34 1 -35 40 -35 39 0 40 1 40 35 0 19 5 35 10 35 6 0 10 -35 10
-85 0 -50 -4 -85 -10 -85 -5 0 -10 18 -10 40 l0 40 -40 0 -40 0 0 -40 c0 -29
-4 -40 -15 -40 -12 0 -15 16 -15 85 0 69 3 85 15 85 10 0 15 -11 15 -35z m235
25 c-3 -5 -22 -10 -41 -10 -30 0 -34 -3 -34 -25 0 -22 4 -25 35 -25 19 0 35
-4 35 -10 0 -5 -16 -10 -35 -10 -32 0 -35 -2 -35 -30 0 -28 3 -30 34 -30 19 0
38 -4 41 -10 4 -6 -13 -10 -44 -10 l-51 0 0 85 0 85 51 0 c31 0 48 -4 44 -10z
m178 -57 c14 -38 28 -76 32 -85 5 -12 2 -18 -8 -18 -8 0 -18 11 -21 25 -5 20
-12 25 -40 25 -28 0 -35 -5 -40 -25 -4 -14 -13 -25 -21 -25 -11 0 -8 17 15 81
17 44 30 82 30 85 0 2 6 4 14 4 8 0 24 -29 39 -67z m77 -8 l0 -75 35 0 c19 0
35 -4 35 -10 0 -5 -22 -10 -50 -10 l-50 0 0 85 c0 69 3 85 15 85 12 0 15 -15
15 -75z m120 0 l0 -75 35 0 c19 0 35 -4 35 -10 0 -5 -22 -10 -50 -10 l-50 0 0
85 c0 69 3 85 15 85 12 0 15 -15 15 -75z m216 13 l39 -63 3 63 c4 93 22 75 22
-23 0 -106 -12 -110 -66 -22 l-39 62 -3 -62 c-4 -94 -22 -76 -22 22 0 106 12
110 66 23z m244 20 c19 -74 22 -75 38 -15 20 73 40 72 63 -3 17 -58 20 -56 39
18 6 23 15 42 20 42 14 0 12 -14 -8 -95 -23 -89 -43 -96 -61 -23 -20 77 -23
78 -40 12 -23 -83 -40 -78 -65 19 -15 55 -24 76 -34 72 -8 -3 -27 -5 -43 -5
-24 0 -29 -4 -29 -25 0 -22 4 -25 35 -25 19 0 35 -4 35 -10 0 -5 -16 -10 -35
-10 -32 0 -35 -2 -35 -30 0 -28 3 -30 34 -30 19 0 38 -4 41 -10 4 -6 -13 -10
-44 -10 l-51 0 0 85 0 85 65 0 64 0 11 -42z m7563 -52 c46 -23 60 -26 72 -16
11 9 21 6 49 -15 35 -27 56 -27 56 1 0 19 14 18 33 -4 27 -29 46 -108 57 -231
6 -62 13 -117 16 -122 5 -9 -9 -60 -32 -117 -8 -18 -19 -54 -24 -79 -6 -25
-19 -58 -29 -72 -10 -14 -28 -57 -41 -96 -13 -38 -32 -97 -43 -130 -25 -77
-68 -140 -162 -240 -42 -43 -74 -84 -71 -90 2 -5 60 -71 129 -146 l125 -135
106 -32 c58 -18 108 -37 111 -42 3 -5 -14 -62 -39 -127 -68 -181 -98 -274 -93
-287 3 -7 43 -27 89 -45 104 -41 159 -72 223 -126 69 -57 70 -58 107 -39 25
13 36 14 50 5 14 -9 18 -8 18 4 0 8 -6 15 -14 15 -15 0 -43 121 -32 139 10 15
-39 88 -105 158 -49 50 -59 67 -59 96 0 51 21 64 73 46 30 -10 47 -23 58 -46
9 -18 18 -30 21 -28 3 3 23 -13 44 -35 21 -22 41 -40 44 -40 3 0 11 15 19 33
l13 32 14 -38 c15 -43 45 -251 69 -489 l6 -57 80 -26 81 -26 51 20 c74 27 429
167 512 201 39 16 99 40 135 53 164 62 290 111 343 133 63 26 76 29 62 15 -6
-6 -44 -23 -85 -40 -84 -33 -228 -93 -340 -141 -41 -18 -104 -43 -139 -56 -35
-14 -73 -31 -84 -39 -12 -8 -29 -15 -37 -15 -9 0 -61 -18 -116 -41 -54 -22
-133 -54 -174 -71 -41 -17 -76 -32 -78 -33 -7 -6 189 -65 198 -60 6 4 115 24
243 46 127 22 248 44 267 49 19 6 51 9 70 9 l35 -1 -30 -8 c-41 -11 -517 -110
-529 -110 -24 0 14 -19 79 -40 39 -12 84 -28 100 -35 17 -8 61 -24 99 -36 38
-13 64 -25 57 -27 -6 -2 -35 5 -64 17 -29 11 -63 22 -77 25 -28 5 -24 3 -144
47 -85 30 -90 31 -103 13 -12 -16 -13 -16 -13 -1 0 22 -17 22 -137 -4 -54 -11
-127 -26 -163 -32 l-65 -12 0 -50 c0 -37 9 -160 15 -203 1 -8 190 -91 211 -93
13 -1 38 4 54 11 17 7 40 12 52 11 12 -1 30 2 40 7 10 5 43 12 73 15 30 3 48
3 40 0 -8 -3 -17 -9 -20 -12 -7 -9 -104 -31 -162 -38 -27 -3 -48 -8 -48 -12 0
-8 343 -172 545 -260 72 -32 141 -63 155 -71 47 -25 60 -30 75 -30 8 0 15 -4
15 -9 0 -5 17 -17 38 -26 166 -80 295 -145 284 -145 -7 0 -34 11 -60 24 -26
13 -58 27 -72 31 -23 7 -142 57 -220 94 -19 9 -42 21 -50 27 -8 6 -62 32 -120
58 -58 26 -123 56 -145 66 -226 105 -344 159 -419 191 l-88 38 -77 -20 c-42
-12 -77 -22 -78 -23 -2 -2 21 -172 47 -341 20 -130 21 -151 9 -295 -9 -125
-16 -164 -34 -200 -13 -25 -33 -65 -45 -90 -103 -206 -244 -372 -267 -314 -4
10 -19 13 -59 10 -30 -2 -54 0 -54 6 0 5 -5 6 -10 3 -6 -4 -4 -12 5 -21 23
-23 18 -27 -12 -9 -26 15 -64 59 -105 123 -10 15 -21 25 -25 23 -14 -8 -63 76
-94 161 -41 114 -48 241 -19 329 24 69 18 98 -26 140 -27 25 -41 21 -26 -8 14
-26 32 -87 32 -105 0 -9 -9 -35 -20 -59 -24 -54 -25 -97 -4 -174 28 -102 28
-105 8 -105 -9 0 -25 -6 -33 -13 -30 -25 -146 -66 -216 -76 -100 -14 -167 -24
-190 -26 -229 -24 -452 -49 -578 -67 -118 -16 -183 -19 -255 -15 -152 10 -207
33 -144 62 12 5 22 17 22 26 0 26 -35 13 -110 -39 -47 -33 -58 -38 -41 -19 43
48 0 31 -75 -28 -104 -84 -156 -106 -120 -51 26 40 1 39 -33 -2 -48 -56 -49
-58 -53 -78 -3 -15 -6 -13 -18 12 -14 32 -35 35 -52 10 -5 -7 -8 -7 -8 2 0 6
-5 12 -10 12 -7 0 -7 -6 0 -19 16 -31 13 -32 -36 -11 -177 76 -294 242 -294
415 0 35 -7 97 -15 137 -9 42 -20 172 -25 303 -5 127 -14 252 -20 278 -21 102
-32 376 -31 762 0 220 5 435 10 477 14 119 75 220 160 262 25 13 120 47 211
76 192 61 260 93 330 155 28 25 69 57 91 72 21 14 39 29 39 33 0 4 14 13 30
20 17 7 60 35 96 61 35 27 76 52 89 55 28 7 31 17 34 99 1 37 15 98 36 160 45
132 47 205 9 295 -33 81 -41 167 -24 277 12 73 18 90 45 119 18 19 39 34 47
34 18 0 48 -67 48 -108 0 -42 9 -62 29 -62 9 0 22 -5 28 -11 28 -28 94 51 90
108 -2 24 -6 29 -23 25 -12 -2 -25 1 -28 7 -4 6 0 11 8 11 8 0 35 11 60 25 25
14 61 25 80 25 35 0 47 12 26 25 -23 15 -9 27 25 21 29 -6 34 -4 29 9 -4 10 2
18 17 24 18 7 19 10 7 10 -33 2 -18 19 22 26 64 11 63 29 -1 21 l-53 -7 38 30
c52 41 88 47 316 46 116 -1 129 -3 183 -29z m-5855 -328 c-33 -95 -94 -272
-135 -393 -42 -121 -79 -223 -82 -228 -4 -4 -1049 -6 -2323 -5 l-2316 3 28 85
c16 47 74 226 130 398 l102 312 2328 0 2328 0 -60 -172z m6700 -630 c-3 -24
-34 -36 -49 -21 -16 16 2 43 28 43 20 0 24 -4 21 -22z m-11308 -243 c0 -23 -4
-25 -45 -25 l-45 0 0 -130 0 -130 -30 0 -30 0 0 130 0 130 -45 0 c-41 0 -45 2
-45 25 l0 25 120 0 120 0 0 -25z m80 -35 l0 -60 70 0 70 0 0 60 c0 57 1 60 25
60 l25 0 0 -155 0 -155 -25 0 c-24 0 -25 2 -25 70 l0 70 -70 0 -70 0 0 -70 0
-70 -30 0 -30 0 0 155 0 155 30 0 30 0 0 -60z m428 38 c-3 -21 -9 -23 -65 -26
l-63 -3 0 -34 0 -35 60 0 c57 0 60 -1 60 -25 0 -24 -3 -25 -60 -25 l-60 0 0
-45 0 -44 63 -3 c56 -3 62 -5 65 -25 3 -22 1 -23 -92 -23 l-96 0 0 155 0 155
96 0 c93 0 95 -1 92 -22z m333 -7 c25 -30 24 -77 -1 -98 -19 -16 -19 -17 5
-39 35 -32 33 -77 -4 -115 -28 -28 -34 -29 -115 -29 l-86 0 0 156 0 156 91 -4
c81 -3 93 -6 110 -27z m249 4 c0 -24 -2 -25 -65 -25 l-65 0 0 -35 0 -35 60 0
c57 0 60 -1 60 -25 0 -24 -3 -25 -60 -25 l-60 0 0 -45 0 -45 65 0 c63 0 65 -1
65 -25 0 -25 -1 -25 -90 -25 l-90 0 0 155 0 155 90 0 c89 0 90 0 90 -25z m194
15 c17 -6 26 -6 26 0 0 6 49 10 120 10 l120 0 0 -25 c0 -23 -4 -25 -45 -25
l-45 0 0 -130 0 -130 -30 0 -30 0 0 129 0 129 -47 4 c-27 2 -50 1 -53 -2 -3
-3 -32 -6 -65 -6 -57 1 -60 0 -60 -24 0 -21 11 -30 60 -55 65 -33 87 -63 78
-108 -8 -39 -56 -67 -113 -67 -69 0 -90 9 -90 36 0 23 2 23 63 17 50 -4 65 -2
76 11 21 25 7 44 -53 72 -64 30 -74 40 -82 82 -5 26 -1 36 24 62 25 24 39 30
76 30 24 0 56 -4 70 -10z m499 -108 c22 -62 43 -109 47 -105 4 4 24 56 45 116
l38 107 38 0 39 0 0 -155 0 -155 -25 0 c-24 0 -24 0 -27 116 l-3 116 -41 -113
c-39 -108 -43 -114 -69 -114 -26 0 -30 6 -64 102 -20 56 -38 104 -41 106 -3 3
-4 -44 -2 -104 l3 -109 -30 0 -31 0 0 156 0 155 42 -3 41 -3 40 -113z m473
102 c84 -40 97 -189 24 -259 -26 -25 -40 -30 -93 -33 -75 -4 -120 19 -143 73
-32 78 -10 180 48 215 41 25 116 26 164 4z m293 1 c48 -24 55 -72 16 -110 -13
-14 -20 -25 -15 -25 21 0 50 -41 50 -69 0 -17 -10 -42 -24 -58 -23 -26 -30
-28 -115 -31 l-91 -4 0 156 0 156 75 0 c47 0 87 -6 104 -15z m141 -140 l0
-155 -30 0 -30 0 0 155 0 155 30 0 30 0 0 -155z m120 25 l0 -129 63 -3 c56 -3
62 -5 65 -25 3 -22 1 -23 -92 -23 l-96 0 0 155 0 155 30 0 30 0 0 -130z m338
108 c-3 -21 -9 -23 -65 -26 l-63 -3 0 -34 0 -34 58 -3 c50 -3 57 -6 60 -25 3
-22 0 -23 -57 -23 l-61 0 0 -45 0 -44 63 -3 c56 -3 62 -5 65 -25 3 -22 1 -23
-92 -23 l-96 0 0 155 0 155 96 0 c93 0 95 -1 92 -22z m313 -7 c31 -31 38 -75
19 -112 -15 -26 -62 -49 -105 -49 l-35 0 0 -60 0 -60 -30 0 -30 0 0 155 0 155
76 0 c70 0 78 -2 105 -29z m299 -6 c36 -35 54 -93 45 -151 -11 -77 -68 -124
-150 -124 -94 0 -145 54 -145 153 0 110 51 161 157 155 53 -3 67 -8 93 -33z
m244 25 c17 -6 26 -6 26 0 0 6 49 10 120 10 l120 0 0 -25 c0 -23 -4 -25 -45
-25 l-45 0 0 -130 0 -130 -30 0 -30 0 0 130 0 130 -45 0 c-29 0 -45 4 -45 13
0 8 -4 7 -10 -3 -6 -11 -27 -15 -67 -15 -55 0 -58 -1 -61 -25 -3 -23 5 -30 58
-55 67 -32 80 -47 80 -93 0 -48 -48 -82 -116 -82 -64 0 -94 13 -94 39 0 17 8
19 73 17 72 -1 72 -1 75 27 3 24 -2 29 -45 48 -26 11 -58 30 -70 41 -38 36
-26 109 20 128 30 12 100 12 131 0z m455 -5 c33 -16 41 -33 41 -80 0 -53 -35
-87 -98 -93 l-52 -5 0 -58 c0 -59 0 -59 -30 -59 l-30 0 0 155 0 155 70 0 c43
0 82 -6 99 -15z m271 -127 c29 -79 55 -149 57 -155 4 -9 -5 -13 -26 -13 -21 0
-33 6 -37 18 -24 75 -23 73 -82 70 l-55 -3 -15 -42 c-12 -38 -17 -43 -43 -43
-16 0 -29 3 -29 8 0 4 13 41 28 82 16 41 41 108 56 148 27 69 29 72 60 72 l33
0 53 -142z m130 -13 l0 -155 -30 0 -30 0 0 155 0 155 30 0 30 0 0 -155z m240
137 c47 -24 73 -71 73 -137 0 -107 -57 -155 -185 -155 l-78 0 0 155 0 155 78
0 c53 0 88 -5 112 -18z m5867 -288 c-3 -3 -12 -4 -19 -1 -8 3 -5 6 6 6 11 1
17 -2 13 -5z m111 -44 c31 -17 107 -48 135 -55 15 -4 36 -18 46 -31 19 -24 19
-25 -15 -105 -37 -91 -44 -102 -44 -71 0 12 -4 22 -10 22 -5 0 -20 10 -34 23
-43 39 -55 47 -72 47 -14 0 -15 8 -9 60 5 47 4 66 -9 85 -24 36 -21 43 12 25z
m-38 -46 c0 -17 -22 -14 -28 4 -2 7 3 12 12 12 9 0 16 -7 16 -16z m-11062
-108 c46 -40 35 -124 -19 -151 -15 -8 -46 -15 -69 -15 l-40 0 0 -60 0 -60 -30
0 -30 0 0 156 0 156 84 -3 c64 -3 89 -8 104 -23z m122 -106 l0 -130 68 0 67 0
19 53 c10 28 32 87 48 130 29 74 31 77 62 77 l33 0 53 -142 c29 -79 55 -149
57 -155 4 -9 -5 -13 -25 -13 -27 0 -32 5 -44 43 l-15 42 -60 3 -60 3 -13 -46
-13 -45 -118 0 -119 0 0 155 0 155 30 0 30 0 0 -130z m565 15 l70 -114 3 114
c3 115 3 115 27 115 l25 0 0 -155 0 -155 -34 0 c-32 0 -37 5 -106 115 -39 63
-72 115 -74 115 -1 0 0 -52 2 -115 l5 -115 -32 0 -31 0 0 155 0 155 38 0 c36
-1 38 -2 107 -115z m333 109 c16 -5 22 -13 20 -28 -3 -19 -8 -21 -59 -18 -39
3 -59 -1 -67 -11 -19 -23 -5 -42 48 -67 69 -32 90 -54 90 -95 0 -52 -45 -85
-116 -85 -64 0 -94 13 -94 39 0 17 8 19 73 17 72 -1 72 -1 75 27 3 24 -2 29
-45 48 -26 11 -58 30 -70 41 -38 36 -26 109 20 128 26 10 93 12 125 4z m212
-149 l0 -155 -30 0 -30 0 0 155 0 155 30 0 30 0 0 -155z m196 43 l69 -112 3
112 c3 112 3 112 27 112 l25 0 0 -155 0 -155 -33 0 c-31 0 -36 6 -105 117
l-72 117 0 -117 0 -117 -25 0 -25 0 0 155 0 155 34 0 c32 0 36 -5 102 -112z
m444 96 c6 -6 8 -17 5 -26 -5 -11 -21 -15 -68 -14 -60 1 -62 0 -62 -24 0 -21
11 -30 60 -55 65 -33 87 -63 78 -108 -8 -39 -56 -67 -113 -67 -69 0 -90 9 -90
36 0 23 2 23 63 17 50 -4 65 -2 76 11 21 25 7 44 -53 72 -64 30 -74 40 -82 82
-5 26 -1 36 25 63 30 30 35 31 92 27 32 -2 64 -9 69 -14z m231 -13 c38 -38 40
-89 4 -122 -13 -13 -25 -28 -25 -32 0 -4 18 -35 40 -68 l41 -59 -34 0 c-31 0
-38 6 -71 60 -29 47 -43 60 -62 60 -23 0 -24 -3 -24 -60 0 -57 -1 -60 -25 -60
l-25 0 0 155 0 155 76 0 c70 0 78 -2 105 -29z m129 -126 l0 -155 -30 0 -30 0
0 155 0 155 30 0 30 0 0 -155z m210 25 l0 -131 66 3 66 3 48 125 47 125 34 0
33 0 57 -150 c52 -138 55 -150 37 -153 -32 -6 -44 4 -57 47 l-12 41 -57 0 -58
0 -15 -42 -16 -43 -116 -3 -117 -3 0 156 0 155 30 0 30 0 0 -130z m565 13 l70
-113 3 115 c3 115 3 115 27 115 l25 0 0 -156 0 -155 -37 3 c-35 3 -40 8 -104
111 -37 60 -69 111 -72 113 -2 3 -2 -47 1 -111 l5 -115 -32 0 -31 0 0 156 0
155 37 -3 c36 -3 40 -8 108 -115z m235 50 l1 -68 27 30 c15 17 42 48 60 68 27
31 38 38 64 35 l31 -3 -44 -50 c-77 -87 -75 -74 -20 -154 l49 -71 53 140 c53
140 53 140 85 140 l32 0 56 -150 c31 -83 56 -153 56 -155 0 -3 -13 -5 -29 -5
-26 0 -31 5 -43 43 l-15 42 -58 0 -58 0 -14 -42 c-15 -43 -15 -43 -63 -43 -48
0 -49 0 -92 63 -24 34 -50 62 -58 62 -11 0 -16 -16 -18 -62 -3 -62 -3 -63 -32
-63 l-30 0 0 155 0 155 30 0 30 0 0 -67z m7730 -248 c0 -8 -4 -15 -10 -15 -5
0 -7 7 -4 15 4 8 8 15 10 15 2 0 4 -7 4 -15z m-9314 -182 c67 -23 154 -110
177 -177 39 -114 14 -221 -72 -307 -95 -95 -36 -89 -951 -89 -915 0 -856 -6
-951 89 -63 63 -89 124 -89 206 0 82 26 143 89 206 93 93 32 87 947 88 724 1
805 -1 850 -16z m10388 -160 c9 -22 -27 -58 -48 -50 -20 8 -30 32 -22 52 8 21
62 20 70 -2z m651 -43 c-3 -5 -11 -10 -16 -10 -6 0 -7 5 -4 10 3 6 11 10 16
10 6 0 7 -4 4 -10z m-72 -17 c-7 -2 -21 -2 -30 0 -10 3 -4 5 12 5 17 0 24 -2
18 -5z m-210 -40 c-7 -2 -21 -2 -30 0 -10 3 -4 5 12 5 17 0 24 -2 18 -5z
m1077 -29 c0 -8 -4 -12 -10 -9 -5 3 -10 10 -10 16 0 5 5 9 10 9 6 0 10 -7 10
-16z m-957 -209 c-3 -9 -8 -14 -10 -11 -3 3 -2 9 2 15 9 16 15 13 8 -4z m-263
-55 c11 -7 7 -10 -17 -10 -17 0 -35 5 -38 10 -8 13 35 13 55 0z m230 -56 c0
-24 -7 -41 -25 -56 -21 -18 -25 -31 -26 -77 0 -31 -5 -65 -10 -76 -6 -13 -7
10 -3 65 6 84 6 86 -20 99 -52 28 -27 69 49 84 30 5 35 -1 35 -39z m-643 -30
c-3 -3 -12 -4 -19 -1 -8 3 -5 6 6 6 11 1 17 -2 13 -5z m-267 -66 c0 -10 19
-30 41 -45 23 -15 36 -29 31 -31 -6 -2 -24 8 -38 22 -22 20 -31 23 -46 15 -16
-8 -17 -13 -7 -25 6 -8 9 -17 6 -20 -3 -3 -10 4 -17 15 -6 12 -19 21 -30 21
-20 0 -40 27 -40 54 0 21 59 36 83 22 9 -6 17 -19 17 -28z m417 2 c11 -22 10
-26 -12 -37 -13 -7 -31 -10 -39 -7 -18 7 -31 47 -21 64 12 20 59 7 72 -20z
m394 -276 l-9 -39 -1 36 c-1 20 2 39 6 42 12 13 13 0 4 -39z m39 14 c0 -16 -3
-19 -11 -11 -6 6 -8 16 -5 22 11 17 16 13 16 -11z m-73 -190 c-3 -8 -6 -5 -6
6 -1 11 2 17 5 13 3 -3 4 -12 1 -19z m963 -52 c0 -15 -18 -31 -26 -23 -7 7 7
37 17 37 5 0 9 -6 9 -14z m-510 -196 c8 -5 11 -10 5 -10 -5 0 -17 5 -25 10 -8
5 -10 10 -5 10 6 0 17 -5 25 -10z m160 -76 l25 -15 -25 7 c-14 3 -29 10 -34
15 -16 14 6 10 34 -7z m-20 -29 c0 -8 -5 -15 -10 -15 -6 0 -10 -8 -8 -17 2
-12 -3 -18 -17 -18 -30 0 -33 43 -3 54 33 14 38 13 38 -4z m-650 -15 c0 -5 -4
-10 -10 -10 -5 0 -10 5 -10 10 0 6 5 10 10 10 6 0 10 -4 10 -10z m-33 -132
c-3 -8 -6 -5 -6 6 -1 11 2 17 5 13 3 -3 4 -12 1 -19z m-832 -138 c3 -5 2 -10
-4 -10 -5 0 -13 5 -16 10 -3 6 -2 10 4 10 5 0 13 -4 16 -10z m125 -30 c20 -6
21 -8 5 -8 -11 0 -31 4 -45 8 -20 6 -21 8 -5 8 11 0 31 -4 45 -8z m830 -209
c0 -5 -9 -13 -20 -16 -11 -3 -20 -11 -20 -16 0 -17 -23 -9 -47 17 -24 26 -24
27 -6 44 11 9 25 19 33 22 15 6 60 -33 60 -51z"/>
<path d="M1660 4450 c0 -25 4 -30 24 -30 13 0 26 7 30 15 9 25 -4 45 -30 45
-20 0 -24 -5 -24 -30z"/>
<path d="M1807 4462 c-36 -40 -10 -112 40 -112 29 0 45 23 45 65 0 20 -6 42
-12 50 -17 21 -54 19 -73 -3z"/>
<path d="M1970 4415 l0 -65 29 0 c33 0 61 30 61 65 0 35 -28 65 -61 65 l-29 0
0 -65z"/>
<path d="M3386 4436 c-8 -32 -4 -39 17 -34 13 2 13 8 3 33 l-13 30 -7 -29z"/>
<path d="M11210 4070 c-14 -5 -18 -8 -9 -9 50 -3 195 -86 250 -143 33 -35 68
-33 49 2 -6 11 -19 24 -30 30 -11 6 -32 22 -47 36 -27 25 -162 95 -179 93 -5
-1 -20 -5 -34 -9z"/>
<path d="M11301 3933 c31 -5 72 -43 47 -43 -8 0 -28 5 -45 10 -18 7 -39 7 -54
2 l-24 -9 23 -7 c21 -7 30 -35 15 -49 -8 -9 -53 32 -53 49 0 21 -40 38 -54 24
-8 -9 -8 -14 1 -17 6 -2 37 -29 68 -59 31 -30 64 -54 72 -54 32 0 93 24 93 36
0 7 7 17 15 22 12 6 14 14 7 33 -15 39 -48 61 -94 64 -24 1 -31 1 -17 -2z m59
-103 c0 -5 -5 -10 -11 -10 -5 0 -7 5 -4 10 3 6 8 10 11 10 2 0 4 -4 4 -10z"/>
<path d="M10712 3908 c2 -6 15 -15 28 -20 23 -9 23 -8 5 12 -20 22 -39 27 -33
8z"/>
<path d="M11659 3854 c-7 -8 -9 -17 -6 -20 8 -9 196 -8 204 0 5 4 -1 14 -12
22 -26 19 -170 18 -186 -2z"/>
<path d="M11640 3803 c-24 -9 -50 -35 -44 -44 3 -5 0 -9 -6 -9 -7 0 -9 -13 -4
-37 7 -39 48 -93 70 -93 15 0 76 31 85 44 4 4 10 3 13 -3 9 -14 26 -14 26 0 0
25 -42 66 -79 79 -43 14 -48 19 -30 37 6 6 8 16 5 22 -8 12 -13 12 -36 4z"/>
<path d="M11728 3784 c12 -8 22 -21 22 -27 0 -7 11 -17 25 -24 14 -6 25 -9 25
-6 0 16 -25 45 -50 58 -38 20 -51 19 -22 -1z"/>
<path d="M10780 3761 c0 -12 5 -21 10 -21 6 0 10 6 10 14 0 8 -4 18 -10 21 -5
3 -10 -3 -10 -14z"/>
<path d="M10752 3641 c0 -17 -5 -39 -11 -49 -9 -16 -41 -171 -69 -326 -9 -55
21 -22 45 50 28 81 69 314 60 338 -10 26 -24 19 -25 -13z"/>
<path d="M11347 3509 c7 -7 15 -10 18 -7 3 3 -2 9 -12 12 -14 6 -15 5 -6 -5z"/>
<path d="M11067 3446 c-12 -30 -8 -37 19 -30 21 5 31 1 48 -20 11 -14 37 -35
56 -46 72 -39 137 -68 161 -71 52 -6 149 31 149 57 0 15 -71 -4 -82 -22 -5 -8
-30 -10 -74 -8 -60 3 -70 7 -114 44 -26 22 -53 40 -59 40 -6 0 -11 8 -11 18 0
10 -6 27 -14 37 -12 16 -18 17 -39 8 -19 -9 -27 -9 -30 0 -2 6 -6 3 -10 -7z"/>
<path d="M11378 3353 c6 -2 18 -2 25 0 6 3 1 5 -13 5 -14 0 -19 -2 -12 -5z"/>
<path d="M11516 3325 c-14 -13 -26 -31 -26 -40 0 -22 5 -19 34 25 30 46 29 49
-8 15z"/>
<path d="M11280 3250 c0 -5 9 -10 21 -10 11 0 17 5 14 10 -3 6 -13 10 -21 10
-8 0 -14 -4 -14 -10z"/>
<path d="M11486 3098 c10 -13 20 -25 21 -27 2 -2 3 8 3 22 0 21 -5 27 -22 27
-21 0 -21 0 -2 -22z"/>
<path d="M11373 3068 c-25 -28 -38 -85 -20 -91 16 -5 9 -83 -10 -121 -11 -21
-13 -41 -7 -75 5 -25 8 -52 7 -58 -1 -16 29 -17 44 -2 17 17 48 -16 37 -39 -4
-9 -6 -20 -6 -24 1 -5 -2 -8 -8 -8 -5 0 -10 -7 -10 -15 0 -22 5 -19 49 28 27
28 44 58 52 90 7 31 20 54 35 63 16 11 25 29 30 60 6 39 3 50 -27 92 -25 37
-38 48 -54 44 -15 -2 -30 6 -48 28 -15 17 -27 36 -27 41 0 16 -16 10 -37 -13z"/>
<path d="M10552 3013 c-29 -11 -47 -24 -55 -42 -6 -14 -11 -88 -12 -166 -1
-77 -4 -151 -9 -165 -7 -24 -4 -26 40 -38 51 -14 63 -10 45 12 -11 13 -3 27
19 32 26 5 39 18 30 29 -11 14 -13 62 -8 237 2 65 1 117 -2 117 -3 -1 -24 -8
-48 -16z"/>
<path d="M11812 2278 c-7 -7 -12 -17 -12 -22 0 -16 68 -59 220 -139 36 -19 82
-46 103 -60 40 -27 75 -42 83 -34 10 10 -13 36 -92 105 -61 53 -110 85 -180
117 -108 50 -105 50 -122 33z"/>
<path d="M11055 2134 c-8 -9 -22 -14 -29 -11 -15 6 -25 -20 -26 -63 -1 -24 -1
-24 -15 -6 -24 31 -25 14 -5 -49 10 -35 21 -54 24 -45 3 8 15 44 27 80 12 36
29 75 37 88 17 26 10 29 -13 6z"/>
<path d="M11740 2083 c0 -16 -11 -41 -25 -57 -33 -38 -32 -42 8 -18 27 17 36
18 61 7 24 -10 36 -9 67 3 22 8 39 19 39 23 0 9 -124 69 -141 69 -5 0 -9 -12
-9 -27z"/>
<path d="M12514 1959 c3 -17 6 -35 6 -40 0 -5 5 -9 12 -9 18 0 98 32 98 39 0
6 -98 41 -115 41 -4 0 -5 -14 -1 -31z"/>
<path d="M12015 1950 c3 -5 11 -10 16 -10 6 0 7 5 4 10 -3 6 -11 10 -16 10 -6
0 -7 -4 -4 -10z"/>
<path d="M11612 1930 c-7 -11 -8 -20 -3 -20 9 0 24 30 18 36 -1 2 -8 -6 -15
-16z"/>
<path d="M11733 1894 c-33 -23 -60 -33 -85 -34 -21 0 -38 -3 -38 -6 0 -4 17
-22 38 -41 20 -18 31 -32 23 -31 -27 5 -21 -20 8 -35 26 -13 29 -13 24 1 -4 9
-2 13 4 9 5 -3 31 10 58 29 27 18 54 34 60 34 6 0 26 13 45 28 37 31 35 47 -8
64 -50 20 -79 16 -129 -18z"/>
<path d="M12620 1903 c-78 -31 -90 -40 -90 -65 0 -23 -4 -23 160 6 52 9 110
19 129 22 18 3 30 9 25 13 -8 6 -82 30 -144 46 -8 3 -44 -7 -80 -22z"/>
<path d="M11540 1895 c7 -9 15 -13 17 -11 7 7 -7 26 -19 26 -6 0 -6 -6 2 -15z"/>
<path d="M12130 1880 c0 -5 5 -10 11 -10 5 0 7 5 4 10 -3 6 -8 10 -11 10 -2 0
-4 -4 -4 -10z"/>
<path d="M11575 1870 c3 -5 8 -10 11 -10 2 0 4 5 4 10 0 6 -5 10 -11 10 -5 0
-7 -4 -4 -10z"/>
<path d="M11390 1769 c0 -6 33 -42 73 -80 103 -100 99 -97 92 -66 -5 19 -3 28
8 33 23 8 10 30 -26 45 -18 8 -54 28 -82 46 -53 35 -65 39 -65 22z"/>
<path d="M11841 1754 c-25 -32 -28 -69 -6 -60 8 3 15 1 15 -4 0 -6 -4 -10 -10
-10 -5 0 -10 -7 -10 -15 0 -8 5 -15 10 -15 6 0 10 -5 10 -11 0 -30 75 -154
117 -194 27 -25 52 -45 56 -45 4 0 20 8 35 19 15 10 59 39 98 65 107 70 110
74 94 144 -7 31 -17 68 -22 82 l-10 25 -13 -25 c-7 -14 -18 -51 -25 -83 -9
-37 -24 -70 -45 -94 l-31 -36 -65 13 c-35 8 -67 14 -70 13 -3 -1 -12 10 -20
25 -7 15 -23 41 -35 57 -43 61 -56 96 -50 137 3 21 4 38 2 38 -3 0 -14 -12
-25 -26z"/>
<path d="M11258 1657 c6 -7 47 -41 92 -77 64 -51 87 -78 110 -124 17 -33 30
-69 30 -81 0 -15 11 -27 35 -38 20 -9 37 -17 40 -17 13 0 43 69 38 88 l-5 22
-20 -25 c-11 -14 -25 -25 -31 -25 -7 0 -27 30 -46 65 -19 38 -51 81 -75 100
-126 106 -151 125 -164 125 -11 0 -12 -3 -4 -13z"/>
<path d="M11770 1583 c0 -12 -4 -25 -10 -28 -5 -3 -10 -15 -10 -26 0 -14 7
-19 25 -19 30 0 33 -15 5 -30 -11 -6 -20 -16 -20 -22 0 -6 8 -4 18 5 10 10 24
17 31 17 8 0 11 6 7 16 -3 9 -6 26 -6 39 0 12 -9 33 -20 46 l-19 24 -1 -22z"/>
<path d="M10904 1479 c-15 -30 -20 -48 -12 -42 10 9 18 9 25 2 7 -7 12 5 16
38 3 26 4 50 2 51 -2 2 -16 -20 -31 -49z"/>
<path d="M11210 1485 c6 -8 9 -23 5 -35 -6 -20 9 -28 20 -11 7 12 42 6 61 -10
8 -6 14 -7 14 -2 0 9 -94 73 -107 73 -3 0 0 -7 7 -15z"/>
<path d="M12563 1476 c3 -8 9 -31 13 -51 5 -31 10 -36 28 -31 11 2 38 8 59 11
20 4 37 11 37 15 0 9 -116 70 -133 70 -5 0 -7 -6 -4 -14z"/>
<path d="M10050 1375 c0 -11 5 -27 10 -35 8 -12 10 -12 10 5 0 11 -5 27 -10
35 -8 12 -10 12 -10 -5z"/>
<path d="M11275 1377 c-4 -10 -5 -21 -1 -24 10 -10 18 4 13 24 -4 17 -4 17
-12 0z"/>
<path d="M11170 1313 c-8 -3 -43 -34 -76 -69 -60 -62 -61 -64 -40 -77 42 -27
53 -27 67 1 7 15 25 43 40 62 14 19 34 47 44 63 17 26 17 27 -1 26 -11 0 -26
-3 -34 -6z"/>
<path d="M11082 1289 c-7 -12 -12 -23 -10 -25 6 -6 48 26 48 37 0 17 -25 9
-38 -12z"/>
<path d="M10175 980 c-8 -13 4 -32 16 -25 12 8 12 35 0 35 -6 0 -13 -4 -16
-10z"/>
<path d="M1462 3958 c3 -33 4 -33 58 -36 l55 -3 -37 25 c-21 14 -47 30 -58 36
-20 11 -21 9 -18 -22z"/>
<path d="M2278 3959 c-16 -9 -18 -26 -18 -134 0 -118 1 -125 20 -125 19 0 20
7 20 135 0 74 -1 135 -2 135 -2 0 -11 -5 -20 -11z"/>
<path d="M3275 3955 c-111 -39 -161 -205 -75 -250 98 -51 230 38 230 155 0 54
-14 79 -55 96 -42 17 -49 17 -100 -1z m79 -50 c24 -24 30 -78 13 -112 -21 -40
-39 -53 -80 -60 -86 -14 -106 112 -27 174 21 17 76 16 94 -2z"/>
<path d="M3491 3962 c-21 -3 -23 -7 -18 -45 3 -23 9 -73 12 -112 9 -102 13
-115 34 -115 23 0 29 8 77 98 21 39 42 72 46 72 6 0 13 -47 20 -135 2 -24 8
-31 28 -33 23 -2 32 10 97 136 69 131 71 139 48 134 -19 -3 -35 -24 -72 -93
-54 -100 -57 -99 -69 20 -6 64 -9 71 -28 71 -16 0 -32 -21 -71 -93 l-49 -92
-8 60 c-17 120 -21 130 -47 127z"/>
<path d="M4754 3962 c-18 -3 -24 -18 -43 -110 -12 -59 -26 -119 -31 -134 l-9
-28 89 0 c78 0 91 2 100 19 5 11 10 22 10 25 0 3 -29 6 -65 6 -77 0 -75 -4
-45 126 11 48 19 90 18 93 -2 3 -12 5 -24 3z"/>
<path d="M5273 3962 c-14 -2 -25 -12 -28 -25 -3 -12 -15 -73 -28 -134 l-23
-113 21 0 c24 0 40 38 51 124 4 25 11 46 15 46 5 0 28 -38 51 -85 38 -76 45
-85 70 -85 23 0 28 4 28 24 0 14 9 62 19 108 33 146 33 146 6 140 -24 -4 -28
-15 -50 -135 -4 -21 -11 -35 -15 -30 -5 4 -27 44 -51 88 -23 44 -42 80 -43 80
-1 1 -11 -1 -23 -3z"/>
<path d="M1720 3953 c0 -3 8 -15 18 -26 12 -15 14 -21 5 -24 -9 -3 -13 -34
-13 -105 l0 -101 65 5 c77 7 111 26 132 76 29 71 3 140 -64 168 -33 14 -143
20 -143 7z m148 -69 c48 -53 12 -134 -59 -134 l-39 0 0 78 c0 43 3 82 7 86 13
13 68 -5 91 -30z"/>
<path d="M2945 3938 c-3 -13 -15 -74 -28 -136 l-24 -113 26 3 c22 3 27 9 31
43 l5 40 55 6 c68 8 80 13 103 45 30 40 33 88 8 113 -18 18 -33 21 -96 21 -69
0 -75 -2 -80 -22z m131 -39 c17 -19 17 -23 3 -47 -12 -22 -23 -28 -62 -30 -26
-2 -47 0 -47 3 0 3 5 26 11 51 11 41 14 44 44 44 20 0 39 -8 51 -21z"/>
<path d="M3871 3847 c-12 -63 -25 -123 -28 -135 -5 -22 -3 -22 96 -22 94 0
101 1 101 20 0 18 -7 20 -70 20 -75 0 -78 3 -64 58 6 20 12 22 75 22 62 0 69
2 69 20 0 18 -7 20 -66 20 -64 0 -66 1 -60 23 3 12 6 27 6 34 0 8 25 13 77 15
65 3 78 6 81 21 3 15 -7 17 -96 17 l-99 0 -22 -113z"/>
<path d="M4111 3843 c-13 -65 -28 -126 -33 -135 -7 -15 -4 -18 20 -18 26 0 29
4 38 48 7 37 13 48 31 50 18 3 27 -7 48 -47 22 -44 29 -51 55 -51 36 0 37 4 6
54 l-23 39 38 37 c31 29 39 44 39 72 0 55 -23 68 -116 68 l-80 0 -23 -117z
m159 58 c14 -28 13 -38 -10 -61 -14 -14 -33 -20 -61 -20 l-42 0 7 38 c3 20 6
43 6 50 0 8 16 12 45 12 34 0 47 -5 55 -19z"/>
<path d="M4485 3948 c-2 -7 -13 -60 -25 -118 -11 -58 -23 -113 -26 -122 -4
-14 1 -18 20 -18 25 0 29 7 38 65 3 16 13 21 61 26 41 5 65 13 83 29 45 43 51
128 9 144 -31 12 -155 7 -160 -6z m123 -40 c7 -7 12 -24 12 -38 0 -37 -18 -50
-68 -50 l-44 0 7 43 c4 23 9 45 12 50 7 12 68 8 81 -5z"/>
<path d="M4981 3840 c-40 -67 -80 -127 -88 -135 -13 -13 -11 -15 14 -15 21 0
33 8 47 30 17 30 20 31 79 28 59 -3 62 -4 65 -30 3 -24 8 -28 33 -28 24 0 29
4 26 18 -3 9 -15 70 -28 135 -22 113 -24 117 -48 117 -22 0 -36 -17 -100 -120z
m102 -42 c-7 -13 -73 -9 -73 4 0 6 12 32 27 57 l27 46 12 -50 c6 -27 9 -53 7
-57z"/>
<path d="M1986 3885 c-13 -14 -16 -33 -14 -99 3 -73 5 -81 23 -81 18 0 20 8
23 89 3 95 -5 118 -32 91z"/>
<path d="M2093 3890 c-13 -5 -23 -16 -23 -25 0 -12 8 -14 38 -9 30 5 43 2 57
-12 18 -19 17 -19 -30 -25 -74 -8 -106 -58 -65 -99 17 -17 31 -20 83 -18 l62
3 3 73 c3 66 1 74 -22 97 -26 26 -62 31 -103 15z m84 -116 c6 -18 -27 -45 -51
-42 -24 3 -34 37 -14 49 17 12 60 7 65 -7z"/>
<path d="M2388 3884 c-57 -31 -66 -107 -19 -155 34 -33 75 -38 121 -14 67 35
67 129 0 168 -34 21 -66 21 -102 1z m80 -40 c43 -30 20 -104 -33 -104 -26 0
-55 33 -55 62 0 21 34 58 53 58 7 0 23 -7 35 -16z"/>
<path d="M2602 3875 c-40 -33 -44 -87 -10 -130 19 -25 26 -27 75 -23 37 3 53
1 53 -7 0 -20 -29 -38 -61 -38 -22 0 -29 -5 -27 -16 2 -11 16 -17 45 -19 35
-3 48 2 68 22 24 24 25 31 25 132 0 97 -1 106 -17 99 -21 -9 -36 -9 -84 0 -29
6 -40 3 -67 -20z m100 -32 c36 -32 17 -83 -32 -83 -33 0 -50 17 -50 52 0 44
48 62 82 31z"/>
<path d="M1535 3846 c-38 -24 -107 -66 -152 -92 -46 -26 -83 -50 -83 -53 1 -8
146 -91 159 -91 5 0 42 19 83 43 l73 44 3 96 c1 53 -1 97 -5 97 -4 0 -39 -20
-78 -44z"/>
<path d="M1890 3146 c0 -42 2 -46 24 -46 46 0 76 18 76 44 0 30 -5 33 -58 42
l-42 7 0 -47z"/>
<path d="M1890 3015 l0 -45 44 0 c50 0 71 18 62 54 -6 24 -30 36 -78 36 -26 0
-28 -3 -28 -45z"/>
<path d="M3304 3159 c-14 -16 -19 -36 -19 -84 0 -79 19 -105 77 -105 54 0 75
14 89 59 14 48 5 105 -22 132 -27 27 -99 26 -125 -2z"/>
<path d="M3614 3177 c-3 -8 -4 -28 -2 -44 3 -26 6 -28 46 -27 26 0 48 7 53 15
21 34 5 56 -49 65 -33 5 -43 3 -48 -9z"/>
<path d="M3610 3015 l0 -45 50 0 c45 0 52 3 62 26 11 23 10 29 -11 45 -14 11
-39 19 -62 19 l-39 0 0 -45z"/>
<path d="M4530 3137 l0 -56 33 6 c42 8 57 20 57 48 0 28 -17 43 -58 51 l-32 7
0 -56z"/>
<path d="M4781 3154 c-15 -19 -21 -41 -21 -79 0 -73 26 -105 85 -105 52 0 80
24 88 73 13 87 -19 137 -88 137 -35 0 -48 -5 -64 -26z"/>
<path d="M5540 3135 l0 -57 33 7 c44 10 57 22 57 56 0 32 -3 35 -53 44 l-37 7
0 -57z"/>
<path d="M5817 3123 c-23 -63 -23 -63 19 -63 39 0 38 -4 10 78 l-12 33 -17
-48z"/>
<path d="M6160 3080 l0 -110 45 0 c66 0 95 31 95 102 0 65 -18 94 -68 108 -74
20 -72 23 -72 -100z"/>
<path d="M1040 2656 l0 -57 38 7 c39 7 62 27 62 55 0 23 -18 36 -62 44 l-38 7
0 -56z"/>
<path d="M1536 2645 c-21 -65 -21 -65 19 -65 19 0 35 3 35 8 0 4 -8 29 -19 56
l-18 49 -17 -48z"/>
<path d="M3144 2696 c-3 -8 -4 -31 -2 -52 3 -37 5 -39 36 -37 40 1 62 18 62
48 0 28 -15 40 -58 48 -23 5 -34 3 -38 -7z"/>
<path d="M3848 2630 l-16 -50 40 0 c28 0 38 4 34 13 -2 6 -10 29 -17 50 -7 20
-15 37 -19 37 -3 0 -13 -22 -22 -50z"/>
<path d="M4698 2642 c-10 -27 -18 -52 -18 -56 0 -3 16 -6 36 -6 34 0 36 2 30
26 -4 15 -12 40 -19 56 l-12 29 -17 -49z"/>
<path d="M1350 1970 l0 -70 40 0 c22 0 40 5 40 10 0 6 -11 10 -25 10 -24 0
-25 3 -25 60 0 47 -3 60 -15 60 -12 0 -15 -14 -15 -70z"/>
<path d="M1460 1970 l0 -70 40 0 c42 0 56 16 18 22 -34 5 -37 38 -4 38 14 0
26 5 26 10 0 6 -11 10 -25 10 -18 0 -25 5 -25 20 0 15 7 20 25 20 14 0 25 5
25 10 0 6 -18 10 -40 10 l-40 0 0 -70z"/>
<path d="M1605 2031 c-6 -10 -45 -120 -45 -128 0 -1 7 -3 15 -3 8 0 15 7 15
15 0 10 10 15 30 15 18 0 33 -6 36 -15 4 -8 12 -15 20 -15 17 0 18 -7 -10 70
-22 61 -46 85 -61 61z m35 -63 c0 -10 -7 -18 -15 -18 -16 0 -19 17 -9 45 5 13
8 14 15 3 5 -7 9 -21 9 -30z"/>
<path d="M1710 1970 c0 -56 3 -70 15 -70 9 0 15 9 15 25 0 14 4 25 10 25 5 0
17 -11 26 -25 9 -14 23 -25 31 -25 11 0 10 6 -6 29 -18 25 -19 30 -6 41 34 28
3 70 -51 70 l-34 0 0 -70z m54 44 c28 -11 13 -44 -20 -44 -2 0 -4 11 -4 25 0
27 1 28 24 19z"/>
<path d="M1850 1970 c0 -81 17 -95 22 -18 l3 52 28 -52 c19 -35 35 -52 48 -52
17 0 19 7 19 70 0 58 -3 70 -16 70 -14 0 -16 -8 -12 -45 3 -25 2 -45 -2 -45
-5 0 -20 20 -34 45 -40 67 -56 60 -56 -25z"/>
<path d="M2060 1970 c0 -81 18 -95 22 -17 l3 52 15 -50 c9 -29 22 -50 30 -50
7 0 20 20 29 45 l16 45 3 -47 c2 -34 7 -48 18 -48 11 0 14 16 14 71 0 67 -1
70 -22 67 -16 -2 -26 -16 -39 -53 l-17 -50 -11 28 c-6 15 -14 39 -17 52 -4 16
-13 25 -25 25 -17 0 -19 -8 -19 -70z"/>
<path d="M2260 2020 c-60 -60 18 -153 88 -104 31 21 31 87 0 108 -31 22 -64
20 -88 -4z m67 -8 c23 -14 21 -77 -3 -86 -26 -10 -54 12 -54 44 0 37 30 59 57
42z"/>
<path d="M2410 1970 c0 -40 4 -70 10 -70 6 0 10 11 10 25 0 14 4 25 9 25 5 0
18 -11 29 -25 28 -36 47 -32 25 5 -13 23 -15 32 -5 42 30 30 1 68 -52 68 -25
0 -26 -2 -26 -70z m49 41 c17 -11 7 -41 -14 -41 -9 0 -15 9 -15 25 0 27 6 30
29 16z"/>
<path d="M2540 1970 l0 -70 40 0 c45 0 55 17 13 22 -38 4 -45 38 -9 38 32 0
35 17 4 22 -33 4 -29 32 5 36 42 5 32 22 -13 22 l-40 0 0 -70z"/>
</g>
</svg>
