<?xml version="1.0" standalone="no"?>
<!DOCTYPE svg PUBLIC "-//W3C//DTD SVG 20010904//EN"
 "http://www.w3.org/TR/2001/REC-SVG-20010904/DTD/svg10.dtd">
<svg version="1.0" xmlns="http://www.w3.org/2000/svg"
 width="115.000000pt" height="44.000000pt" viewBox="0 0 115.000000 44.000000"
 preserveAspectRatio="xMidYMid meet">

<g transform="translate(0.000000,44.000000) scale(0.100000,-0.100000)"
fill="#000000" stroke="none">
<path d="M240 290 c0 -16 6 -20 33 -20 33 0 31 4 -15 31 -15 8 -18 6 -18 -11z"/>
<path d="M399 287 c7 -10 25 -17 40 -17 31 0 45 -9 54 -34 11 -27 -18 -66 -48
-66 -23 0 -25 4 -25 45 0 25 -4 45 -10 45 -6 0 -10 -27 -10 -60 l0 -60 34 0
c51 0 86 33 86 80 0 47 -26 69 -92 78 -39 5 -42 4 -29 -11z"/>
<path d="M727 293 c-4 -3 -7 -39 -7 -80 0 -58 3 -73 15 -73 12 0 15 16 15 80
0 73 -6 91 -23 73z"/>
<path d="M552 248 c-18 -18 -16 -108 3 -108 12 0 15 13 15 60 0 33 -1 60 -3
60 -2 0 -8 -5 -15 -12z"/>
<path d="M628 253 c-27 -7 -22 -23 6 -23 14 0 28 -4 31 -10 3 -6 -5 -10 -19
-10 -35 0 -59 -26 -46 -51 8 -14 20 -18 50 -17 l40 1 0 47 c0 61 -14 76 -62
63z m42 -79 c0 -10 -7 -14 -22 -12 -32 5 -35 28 -4 28 17 0 26 -5 26 -16z"/>
<path d="M792 244 c-41 -28 -21 -104 28 -104 32 0 51 12 61 36 11 31 -6 70
-35 78 -29 8 -29 8 -54 -10z m66 -40 c6 -40 -48 -56 -62 -18 -10 26 5 45 33
42 17 -2 27 -10 29 -24z"/>
<path d="M939 253 c-23 -6 -38 -44 -28 -70 9 -24 40 -37 69 -28 11 4 20 2 20
-4 0 -14 -38 -33 -50 -26 -6 3 -10 2 -10 -3 0 -16 28 -22 54 -12 27 10 36 35
36 103 0 44 -1 47 -19 37 -13 -7 -22 -7 -26 0 -6 10 -17 11 -46 3z m51 -28
c26 -31 -18 -71 -47 -43 -12 12 -13 20 -4 37 14 25 34 27 51 6z"/>
<path d="M237 199 c-48 -28 -87 -55 -85 -60 2 -5 21 -20 43 -34 l41 -24 47 30
c47 29 47 29 47 84 0 30 -1 55 -2 55 -2 0 -43 -23 -91 -51z"/>
</g>
</svg>
