<svg version="1.1" id="Layer_1" xmlns="http://www.w3.org/2000/svg" xmlns:xlink="http://www.w3.org/1999/xlink" x="0px" y="0px"
	 width="100%" viewBox="0 0 500 500" enable-background="new 0 0 500 500" xml:space="preserve">
<path fill="#FFFFFF" opacity="1.000000" stroke="none" 
	d="
M335.000000,501.000000 
	C223.333359,501.000000 112.166718,501.000000 1.000060,501.000000 
	C1.000040,334.333405 1.000040,167.666794 1.000020,1.000149 
	C167.666565,1.000099 334.333130,1.000099 500.999756,1.000050 
	C500.999847,167.666519 500.999847,334.333038 500.999939,500.999786 
	C445.833344,501.000000 390.666656,501.000000 335.000000,501.000000 
M451.668457,235.825729 
	C453.222565,234.932281 454.825775,234.113602 456.321289,233.130966 
	C460.314240,230.507370 464.260864,227.813370 468.602234,224.401535 
	C468.643890,205.344971 468.692596,186.288391 468.701782,167.231812 
	C468.702179,166.451218 468.330658,165.670456 467.859772,164.256409 
	C461.896790,160.865982 455.933807,157.475555 449.504944,153.567215 
	C444.994263,151.049103 440.483612,148.530975 435.519745,145.461349 
	C428.691406,141.632401 421.863098,137.803452 415.064880,133.911240 
	C415.064880,133.911240 415.015930,133.861084 414.591888,133.352524 
	C397.267456,123.360634 379.942993,113.368752 362.064117,103.057083 
	C362.064117,124.140656 362.064117,144.072571 362.224823,164.667343 
	C379.634491,174.824738 397.044159,184.982132 414.018311,195.707123 
	C396.729401,205.749847 379.440491,215.792557 361.630890,226.137711 
	C379.298706,236.354858 396.134460,246.110092 413.012177,255.792145 
	C413.826019,256.259003 415.009491,256.081451 416.710938,256.000519 
	C419.465515,254.307907 422.220062,252.615280 425.660553,250.819122 
	C428.439026,249.140335 431.217529,247.461548 434.656830,245.651505 
	C437.434174,243.982040 440.211517,242.312576 443.616638,240.451904 
	C446.069946,238.943176 448.523285,237.434464 451.668457,235.825729 
M65.847565,251.806854 
	C53.718842,251.806854 41.590118,251.806854 29.182512,251.806854 
	C28.576250,263.084412 36.487358,266.435089 45.521420,269.382080 
	C33.040718,272.751312 31.160383,275.185425 31.160315,286.996338 
	C31.160208,304.819183 31.160191,322.642059 31.160139,340.464905 
	C31.160133,342.219208 31.160139,343.973541 31.160139,345.917786 
	C42.897385,345.917786 53.885735,346.130402 64.863220,345.875397 
	C91.098778,345.265961 110.321693,325.547302 110.815811,298.998871 
	C111.304543,272.739868 93.403145,253.582672 65.847565,251.806854 
M399.646759,277.959961 
	C398.208160,279.240692 396.769562,280.521423 395.362244,281.774323 
	C380.212646,271.019470 360.613678,271.477631 348.726776,282.762634 
	C337.419342,293.497498 335.196625,314.284760 344.073639,327.496826 
	C349.873718,336.129303 358.293915,340.291809 368.498932,341.025452 
	C378.383545,341.736084 387.459625,339.279449 395.878723,332.880035 
	C395.480164,339.657288 394.785187,345.565582 389.898315,349.613190 
	C381.607086,356.480438 371.933960,354.963470 361.954773,353.149689 
	C361.954773,356.122040 361.398132,358.926788 362.117432,361.353302 
	C362.784821,363.604767 364.387482,366.567963 366.310974,367.304535 
	C384.778992,374.376801 411.064697,367.614838 414.182251,341.867920 
	C414.601593,338.404633 414.997009,334.911896 415.013550,331.430908 
	C415.097595,313.767914 415.059906,296.104340 415.040405,278.440948 
	C415.038849,277.037842 414.850830,275.634918 414.728363,273.939758 
	C411.580383,274.476837 408.930420,274.780029 406.362030,275.413879 
	C404.279755,275.927673 402.295563,276.838867 399.646759,277.959961 
M259.990753,290.568970 
	C244.398972,316.507385 260.514862,346.358185 290.773224,347.585968 
	C316.768738,348.640778 336.179993,325.035583 329.198578,300.623260 
	C324.919403,285.660156 314.432343,277.105286 299.443542,274.571716 
	C283.585510,271.891266 270.210846,276.726501 259.990753,290.568970 
M212.723907,337.422485 
	C212.517960,323.771729 212.788818,310.092102 211.964661,296.478760 
	C211.221390,284.201355 203.919235,276.235443 191.673752,274.789734 
	C184.245651,273.912720 176.348404,274.473389 169.004318,276.017120 
	C158.064133,278.316772 156.624634,281.542175 158.845367,292.963104 
	C160.769623,292.523834 162.668991,291.870270 164.612762,291.686615 
	C171.211014,291.063293 177.856216,289.943848 184.424957,290.253937 
	C192.521088,290.636139 196.210251,296.085266 194.677292,303.995911 
	C192.249908,303.804169 189.760025,303.279633 187.328110,303.475372 
	C179.270065,304.123901 170.959000,304.021729 163.260666,306.109314 
	C154.636536,308.447906 149.651398,317.944885 150.299072,327.023773 
	C150.997604,336.815582 156.516479,343.743286 165.903687,345.965546 
	C175.712372,348.287598 185.388046,347.915405 193.019241,344.130524 
	C200.162430,347.273956 206.332504,345.455444 212.723831,345.893433 
	C212.723831,343.002991 212.723831,340.697906 212.723907,337.422485 
M243.877289,316.500000 
	C243.877289,293.887543 243.877289,271.275055 243.877289,248.597839 
	C229.896271,250.784027 225.553635,255.687485 225.553696,268.866608 
	C225.553818,292.691620 225.553619,316.516632 225.553528,340.341644 
	C225.553513,342.121826 225.553497,343.901978 225.553497,345.668427 
	C231.939682,345.668427 237.697266,345.668427 243.877274,345.668427 
	C243.877274,336.085815 243.877274,326.792908 243.877289,316.500000 
M138.788696,334.473999 
	C138.788696,314.088074 138.788696,293.702118 138.788696,272.555725 
	C135.977325,273.597809 133.804230,274.297119 131.717117,275.196014 
	C124.188950,278.438171 119.953796,283.315125 120.458038,292.409271 
	C121.174843,305.336823 120.640121,318.333771 120.640121,331.301086 
	C120.640121,336.089569 120.640129,340.878082 120.640129,345.649780 
	C126.902725,345.649780 132.638931,345.649780 138.788635,345.649780 
	C138.788635,342.046112 138.788635,338.754730 138.788696,334.473999 
z"/>
<path fill="#ED2028" opacity="1.000000" stroke="none" 
	d="
M66.300392,251.826050 
	C93.403145,253.582672 111.304543,272.739868 110.815811,298.998871 
	C110.321693,325.547302 91.098778,345.265961 64.863220,345.875397 
	C53.885735,346.130402 42.897385,345.917786 31.160139,345.917786 
	C31.160139,343.973541 31.160133,342.219208 31.160139,340.464905 
	C31.160191,322.642059 31.160208,304.819183 31.160315,286.996338 
	C31.160383,275.185425 33.040718,272.751312 45.521420,269.382080 
	C36.487358,266.435089 28.576250,263.084412 29.182512,251.806854 
	C41.590118,251.806854 53.718842,251.806854 66.300392,251.826050 
M49.638596,286.500946 
	C49.638596,300.452179 49.638596,314.403412 49.638596,328.496033 
	C63.855396,329.724640 77.229828,329.667267 85.530754,316.129913 
	C92.612160,304.581421 93.343452,292.298431 85.935654,280.695587 
	C77.325989,267.210297 63.455463,268.744232 49.638424,269.283325 
	C49.638424,274.903473 49.638424,280.202423 49.638596,286.500946 
z"/>
<path fill="#ED1F27" opacity="1.000000" stroke="none" 
	d="
M399.957306,277.766907 
	C402.295563,276.838867 404.279755,275.927673 406.362030,275.413879 
	C408.930420,274.780029 411.580383,274.476837 414.728363,273.939758 
	C414.850830,275.634918 415.038849,277.037842 415.040405,278.440948 
	C415.059906,296.104340 415.097595,313.767914 415.013550,331.430908 
	C414.997009,334.911896 414.601593,338.404633 414.182251,341.867920 
	C411.064697,367.614838 384.778992,374.376801 366.310974,367.304535 
	C364.387482,366.567963 362.784821,363.604767 362.117432,361.353302 
	C361.398132,358.926788 361.954773,356.122040 361.954773,353.149689 
	C371.933960,354.963470 381.607086,356.480438 389.898315,349.613190 
	C394.785187,345.565582 395.480164,339.657288 395.878723,332.880035 
	C387.459625,339.279449 378.383545,341.736084 368.498932,341.025452 
	C358.293915,340.291809 349.873718,336.129303 344.073639,327.496826 
	C335.196625,314.284760 337.419342,293.497498 348.726776,282.762634 
	C360.613678,271.477631 380.212646,271.019470 395.362244,281.774323 
	C396.769562,280.521423 398.208160,279.240692 399.957306,277.766907 
M366.066376,322.679657 
	C367.430420,323.284454 368.753510,324.015045 370.164978,324.474030 
	C380.868958,327.954437 392.375183,322.668701 394.986450,313.118988 
	C397.497192,303.936920 393.275177,294.907990 384.763275,291.256378 
	C375.342926,287.215057 364.589050,290.130066 360.060059,297.952667 
	C355.285889,306.198761 357.449158,315.948151 366.066376,322.679657 
z"/>
<path fill="#ED2027" opacity="1.000000" stroke="none" 
	d="
M260.187988,290.264954 
	C270.210846,276.726501 283.585510,271.891266 299.443542,274.571716 
	C314.432343,277.105286 324.919403,285.660156 329.198578,300.623260 
	C336.179993,325.035583 316.768738,348.640778 290.773224,347.585968 
	C260.514862,346.358185 244.398972,316.507385 260.187988,290.264954 
M310.156097,302.586884 
	C309.887634,301.980286 309.666016,301.347534 309.343750,300.771027 
	C303.979370,291.175690 293.460052,287.435638 283.780426,291.669525 
	C274.319336,295.807861 269.893127,307.271179 273.645538,317.917511 
	C277.263184,328.181305 287.159424,333.631134 297.399872,330.998932 
	C308.628967,328.112671 314.005219,316.715942 310.156097,302.586884 
z"/>
<path fill="#ED2129" opacity="1.000000" stroke="none" 
	d="
M212.723877,337.907654 
	C212.723831,340.697906 212.723831,343.002991 212.723831,345.893433 
	C206.332504,345.455444 200.162430,347.273956 193.019241,344.130524 
	C185.388046,347.915405 175.712372,348.287598 165.903687,345.965546 
	C156.516479,343.743286 150.997604,336.815582 150.299072,327.023773 
	C149.651398,317.944885 154.636536,308.447906 163.260666,306.109314 
	C170.959000,304.021729 179.270065,304.123901 187.328110,303.475372 
	C189.760025,303.279633 192.249908,303.804169 194.677292,303.995911 
	C196.210251,296.085266 192.521088,290.636139 184.424957,290.253937 
	C177.856216,289.943848 171.211014,291.063293 164.612762,291.686615 
	C162.668991,291.870270 160.769623,292.523834 158.845367,292.963104 
	C156.624634,281.542175 158.064133,278.316772 169.004318,276.017120 
	C176.348404,274.473389 184.245651,273.912720 191.673752,274.789734 
	C203.919235,276.235443 211.221390,284.201355 211.964661,296.478760 
	C212.788818,310.092102 212.517960,323.771729 212.723877,337.907654 
M182.669647,314.782440 
	C180.377579,315.108490 177.997467,315.147430 175.811081,315.817993 
	C170.641388,317.403534 168.310806,320.820801 168.581100,325.799530 
	C168.842621,330.616394 171.766327,334.424988 177.080414,334.574738 
	C181.512314,334.699615 186.322113,333.665436 190.370697,331.832733 
	C194.771927,329.840424 197.381424,322.392578 194.986298,317.837372 
	C193.927322,315.823364 189.189636,315.705170 186.093170,314.828003 
	C185.321426,314.609406 184.437958,314.785217 182.669647,314.782440 
z"/>
<path fill="#ED2027" opacity="1.000000" stroke="none" 
	d="
M243.877289,317.000000 
	C243.877274,326.792908 243.877274,336.085815 243.877274,345.668427 
	C237.697266,345.668427 231.939682,345.668427 225.553497,345.668427 
	C225.553497,343.901978 225.553513,342.121826 225.553528,340.341644 
	C225.553619,316.516632 225.553818,292.691620 225.553696,268.866608 
	C225.553635,255.687485 229.896271,250.784027 243.877289,248.597839 
	C243.877289,271.275055 243.877289,293.887543 243.877289,317.000000 
z"/>
<path fill="#F7941F" opacity="1.000000" stroke="none" 
	d="
M414.453796,195.139526 
	C397.044159,184.982132 379.634491,174.824738 362.456390,164.193726 
	C366.721222,161.404999 370.748688,159.079727 374.788757,156.776566 
	C388.195343,149.133774 401.606506,141.498962 415.015930,133.861084 
	C415.015930,133.861084 415.064880,133.911240 415.034485,134.407486 
	C415.018402,138.931488 415.032715,142.959229 415.029266,147.437256 
	C415.018646,150.587250 415.025787,153.287003 415.020477,156.441254 
	C415.010803,159.927368 415.013550,162.958954 415.009094,166.445435 
	C415.003113,169.932053 415.004364,172.963776 415.002960,176.454224 
	C415.077423,182.159866 413.222839,188.427338 421.566895,189.321594 
	C421.756470,189.341888 421.892883,189.858475 421.895020,190.432877 
	C419.529755,192.263763 417.323547,193.805344 414.957306,195.276367 
	C414.797272,195.205795 414.453796,195.139542 414.453796,195.139526 
z"/>
<path fill="#EE3A81" opacity="1.000000" stroke="none" 
	d="
M414.236053,195.423340 
	C414.453796,195.139542 414.797272,195.205795 414.987671,195.402466 
	C415.178040,195.599121 415.238464,195.853073 415.157898,196.324707 
	C415.048187,215.207855 414.996643,233.619431 415.034607,252.030823 
	C415.037476,253.422546 415.677155,254.812958 416.020844,256.203979 
	C415.009491,256.081451 413.826019,256.259003 413.012177,255.792145 
	C396.134460,246.110092 379.298706,236.354858 361.630890,226.137711 
	C379.440491,215.792557 396.729401,205.749847 414.236053,195.423340 
z"/>
<path fill="#FDB834" opacity="1.000000" stroke="none" 
	d="
M414.803894,133.606796 
	C401.606506,141.498962 388.195343,149.133774 374.788757,156.776566 
	C370.748688,159.079727 366.721222,161.404999 362.376038,163.862289 
	C362.064117,144.072571 362.064117,124.140656 362.064117,103.057083 
	C379.942993,113.368752 397.267456,123.360634 414.803894,133.606796 
z"/>
<path fill="#ED2129" opacity="1.000000" stroke="none" 
	d="
M138.788666,334.968689 
	C138.788635,338.754730 138.788635,342.046112 138.788635,345.649780 
	C132.638931,345.649780 126.902725,345.649780 120.640129,345.649780 
	C120.640129,340.878082 120.640121,336.089569 120.640121,331.301086 
	C120.640121,318.333771 121.174843,305.336823 120.458038,292.409271 
	C119.953796,283.315125 124.188950,278.438171 131.717117,275.196014 
	C133.804230,274.297119 135.977325,273.597809 138.788696,272.555725 
	C138.788696,293.702118 138.788696,314.088074 138.788666,334.968689 
z"/>
<path fill="#B4294A" opacity="1.000000" stroke="none" 
	d="
M416.365906,256.102234 
	C415.677155,254.812958 415.037476,253.422546 415.034607,252.030823 
	C414.996643,233.619431 415.048187,215.207855 415.482574,196.426300 
	C419.272644,198.031769 422.657471,200.007263 425.737946,202.272552 
	C425.289032,204.368332 425.024414,206.173965 425.019043,207.980377 
	C424.976410,222.294373 424.983093,236.608536 424.974609,250.922638 
	C422.220062,252.615280 419.465515,254.307907 416.365906,256.102234 
z"/>
<path fill="#F36F23" opacity="1.000000" stroke="none" 
	d="
M415.016327,165.990540 
	C415.013550,162.958954 415.010803,159.927368 415.485443,156.446182 
	C425.566437,155.997864 435.171783,156.093506 444.771973,155.914078 
	C446.515717,155.881500 448.238403,154.723557 449.970825,154.085129 
	C455.933807,157.475555 461.896790,160.865982 467.678223,164.701385 
	C465.998627,166.087997 464.500580,167.029648 462.745422,167.953217 
	C462.321136,167.896011 462.153900,167.856857 461.765686,167.497681 
	C459.665710,166.785095 457.789124,166.066116 455.907318,166.052246 
	C442.277588,165.951782 428.646790,165.993683 415.016327,165.990540 
z"/>
<path fill="#C3254F" opacity="1.000000" stroke="none" 
	d="
M425.317596,250.870880 
	C424.983093,236.608536 424.976410,222.294373 425.019043,207.980377 
	C425.024414,206.173965 425.289032,204.368332 426.056458,202.392456 
	C428.754761,203.178818 430.830139,204.135071 433.030090,205.318497 
	C433.453064,205.962616 433.751495,206.379562 434.034668,207.277679 
	C434.011627,220.433502 434.003815,233.108139 433.996033,245.782745 
	C431.217529,247.461548 428.439026,249.140335 425.317596,250.870880 
z"/>
<path fill="#B64B8A" opacity="1.000000" stroke="none" 
	d="
M463.002502,167.971298 
	C464.500580,167.029648 465.998627,166.087997 467.814575,165.018066 
	C468.330658,165.670456 468.702179,166.451218 468.701782,167.231812 
	C468.692596,186.288391 468.643890,205.344971 468.052429,224.711868 
	C465.682159,224.016479 463.861755,223.010742 462.330963,221.705750 
	C462.751556,219.927429 462.994171,218.448578 462.996307,216.969345 
	C463.019928,200.636703 463.006165,184.303986 463.002502,167.971298 
z"/>
<path fill="#D02153" opacity="1.000000" stroke="none" 
	d="
M434.326416,245.717133 
	C434.003815,233.108139 434.011627,220.433502 434.339569,207.472137 
	C437.438019,208.462784 440.216309,209.740173 443.018616,211.253510 
	C443.042603,211.489441 443.108612,211.959122 442.793152,212.241882 
	C442.648102,221.897476 442.818481,231.270294 442.988861,240.643127 
	C440.211517,242.312576 437.434174,243.982040 434.326416,245.717133 
z"/>
<path fill="#F26224" opacity="1.000000" stroke="none" 
	d="
M449.737885,153.826172 
	C448.238403,154.723557 446.515717,155.881500 444.771973,155.914078 
	C435.171783,156.093506 425.566437,155.997864 415.497894,155.991669 
	C415.025787,153.287003 415.018646,150.587250 415.492523,147.442245 
	C422.640015,146.668930 429.306458,146.340897 435.972931,146.012848 
	C440.483612,148.530975 444.994263,151.049103 449.737885,153.826172 
z"/>
<path fill="#DC1E57" opacity="1.000000" stroke="none" 
	d="
M443.302734,240.547516 
	C442.818481,231.270294 442.648102,221.897476 443.096008,212.398621 
	C445.799683,213.191574 447.885010,214.110565 450.134155,215.268372 
	C450.880310,215.999664 451.462677,216.492126 451.740204,217.273361 
	C451.282440,223.683350 451.129517,229.804535 450.976593,235.925735 
	C448.523285,237.434464 446.069946,238.943176 443.302734,240.547516 
z"/>
<path fill="#E61B5B" opacity="1.000000" stroke="none" 
	d="
M451.322510,235.875732 
	C451.129517,229.804535 451.282440,223.683350 452.045288,217.409241 
	C454.087921,217.850922 455.520660,218.445526 457.151489,219.299606 
	C458.913513,220.374405 460.477417,221.189697 462.041321,222.005005 
	C463.861755,223.010742 465.682159,224.016479 467.864258,225.084778 
	C464.260864,227.813370 460.314240,230.507370 456.321289,233.130966 
	C454.825775,234.113602 453.222565,234.932281 451.322510,235.875732 
z"/>
<path fill="#F15627" opacity="1.000000" stroke="none" 
	d="
M435.746338,145.737106 
	C429.306458,146.340897 422.640015,146.668930 415.510284,146.991974 
	C415.032715,142.959229 415.018402,138.931488 415.019409,134.439117 
	C421.863098,137.803452 428.691406,141.632401 435.746338,145.737106 
z"/>
<path fill="#FFFDFD" opacity="1.000000" stroke="none" 
	d="
M49.638512,286.001160 
	C49.638424,280.202423 49.638424,274.903473 49.638424,269.283325 
	C63.455463,268.744232 77.325989,267.210297 85.935654,280.695587 
	C93.343452,292.298431 92.612160,304.581421 85.530754,316.129913 
	C77.229828,329.667267 63.855396,329.724640 49.638596,328.496033 
	C49.638596,314.403412 49.638596,300.452179 49.638512,286.001160 
z"/>
<path fill="#FFFCFC" opacity="1.000000" stroke="none" 
	d="
M365.758240,322.462036 
	C357.449158,315.948151 355.285889,306.198761 360.060059,297.952667 
	C364.589050,290.130066 375.342926,287.215057 384.763275,291.256378 
	C393.275177,294.907990 397.497192,303.936920 394.986450,313.118988 
	C392.375183,322.668701 380.868958,327.954437 370.164978,324.474030 
	C368.753510,324.015045 367.430420,323.284454 365.758240,322.462036 
z"/>
<path fill="#FFFCFC" opacity="1.000000" stroke="none" 
	d="
M310.307892,302.950623 
	C314.005219,316.715942 308.628967,328.112671 297.399872,330.998932 
	C287.159424,333.631134 277.263184,328.181305 273.645538,317.917511 
	C269.893127,307.271179 274.319336,295.807861 283.780426,291.669525 
	C293.460052,287.435638 303.979370,291.175690 309.343750,300.771027 
	C309.666016,301.347534 309.887634,301.980286 310.307892,302.950623 
z"/>
<path fill="#FFFCFC" opacity="1.000000" stroke="none" 
	d="
M183.137756,314.781097 
	C184.437958,314.785217 185.321426,314.609406 186.093170,314.828003 
	C189.189636,315.705170 193.927322,315.823364 194.986298,317.837372 
	C197.381424,322.392578 194.771927,329.840424 190.370697,331.832733 
	C186.322113,333.665436 181.512314,334.699615 177.080414,334.574738 
	C171.766327,334.424988 168.842621,330.616394 168.581100,325.799530 
	C168.310806,320.820801 170.641388,317.403534 175.811081,315.817993 
	C177.997467,315.147430 180.377579,315.108490 183.137756,314.781097 
z"/>
<path fill="#F57C20" opacity="1.000000" stroke="none" 
	d="
M415.009094,166.445435 
	C428.646790,165.993683 442.277588,165.951782 455.907318,166.052246 
	C457.789124,166.066116 459.665710,166.785095 461.470520,167.663940 
	C459.913635,169.065552 458.430969,169.980896 456.644409,171.054672 
	C454.554443,172.233231 452.768311,173.253342 450.659363,174.315826 
	C448.251312,175.646988 446.166138,176.935791 443.810852,177.890198 
	C434.029022,177.035706 424.517334,176.515594 415.005615,175.995483 
	C415.004364,172.963776 415.003113,169.932053 415.009094,166.445435 
z"/>
<path fill="#F58820" opacity="1.000000" stroke="none" 
	d="
M415.002960,176.454224 
	C424.517334,176.515594 434.029022,177.035706 443.693481,178.082550 
	C443.528625,178.919708 443.211090,179.230148 442.547638,179.657684 
	C439.473633,181.422134 436.745514,183.069519 433.672119,184.835709 
	C429.569275,186.684204 425.811707,188.413879 422.054108,190.143555 
	C421.892883,189.858475 421.756470,189.341888 421.566895,189.321594 
	C413.222839,188.427338 415.077423,182.159866 415.002960,176.454224 
z"/>
<path fill="#652271" opacity="1.000000" stroke="none" 
	d="
M421.895020,190.432877 
	C425.811707,188.413879 429.569275,186.684204 433.667816,185.330566 
	C434.005829,187.680161 434.108612,189.660706 433.978638,191.625839 
	C433.681427,196.118332 433.270355,200.603287 432.905518,205.091309 
	C430.830139,204.135071 428.754761,203.178818 426.360840,202.102661 
	C422.657471,200.007263 419.272644,198.031769 415.563110,195.954681 
	C415.238464,195.853073 415.178040,195.599121 415.147705,195.473022 
	C417.323547,193.805344 419.529755,192.263763 421.895020,190.432877 
z"/>
<path fill="#A4377E" opacity="1.000000" stroke="none" 
	d="
M456.948303,170.896240 
	C458.430969,169.980896 459.913635,169.065552 461.691467,167.983978 
	C462.153900,167.856857 462.321136,167.896011 462.745422,167.953217 
	C463.006165,184.303986 463.019928,200.636703 462.996307,216.969345 
	C462.994171,218.448578 462.751556,219.927429 462.330963,221.705734 
	C460.477417,221.189697 458.913513,220.374405 457.456299,219.004608 
	C457.691193,203.530258 457.837738,188.610474 457.903870,173.690353 
	C457.907959,172.760406 457.281433,171.827667 456.948303,170.896240 
z"/>
<path fill="#762774" opacity="1.000000" stroke="none" 
	d="
M433.030090,205.318497 
	C433.270355,200.603287 433.681427,196.118332 433.978638,191.625839 
	C434.108612,189.660706 434.005829,187.680161 434.013062,185.211761 
	C436.745514,183.069519 439.473633,181.422134 442.579285,180.167709 
	C442.969452,190.712967 442.982056,200.865265 442.994629,211.017578 
	C440.216309,209.740173 437.438019,208.462784 434.354797,206.990936 
	C433.751495,206.379562 433.453064,205.962616 433.030090,205.318497 
z"/>
<path fill="#872D78" opacity="1.000000" stroke="none" 
	d="
M443.018616,211.253510 
	C442.982056,200.865265 442.969452,190.712967 442.925171,180.050629 
	C443.211090,179.230148 443.528625,178.919708 443.963562,178.416931 
	C446.166138,176.935791 448.251312,175.646988 450.664154,174.762405 
	C450.994507,186.743515 451.039368,198.320724 450.954071,209.896973 
	C450.941406,211.610153 450.313599,213.318802 449.970367,215.029556 
	C447.885010,214.110565 445.799683,213.191574 443.411469,212.115845 
	C443.108612,211.959122 443.042603,211.489441 443.018616,211.253510 
z"/>
<path fill="#97337C" opacity="1.000000" stroke="none" 
	d="
M450.134155,215.268372 
	C450.313599,213.318802 450.941406,211.610153 450.954071,209.896973 
	C451.039368,198.320724 450.994507,186.743515 450.987000,174.720032 
	C452.768311,173.253342 454.554443,172.233231 456.644409,171.054672 
	C457.281433,171.827667 457.907959,172.760406 457.903870,173.690353 
	C457.837738,188.610474 457.691193,203.530258 457.258179,218.745117 
	C455.520660,218.445526 454.087921,217.850922 452.350128,217.120453 
	C451.462677,216.492126 450.880310,215.999664 450.134155,215.268372 
z"/>
</svg>